<svg width="24" height="24" viewBox="0 0 24 24" fill="none" xmlns="http://www.w3.org/2000/svg">
<g clip-path="url(#clip0)">
<path d="M18.5754 17.8165L15.5731 15.9867C15.4467 15.9043 15.2962 15.8575 15.137 15.8512C14.9779 15.8448 14.816 15.8791 14.6679 15.9505L13.4524 16.5754C13.3 16.6516 13.1315 16.6858 12.9675 16.6739C12.8035 16.662 12.6512 16.6044 12.5293 16.5083C10.3899 14.8647 9.0183 12.489 8.66458 9.81443C8.64231 9.66075 8.66862 9.50008 8.74028 9.35212C8.81194 9.20416 8.92585 9.07534 9.06802 8.98146L10.1854 8.18667C10.3235 8.09688 10.4371 7.97584 10.5146 7.83603C10.592 7.69623 10.6304 7.54273 10.6259 7.39137L10.5424 3.87638L10.528 2.97572C10.5238 2.8462 10.4886 2.72195 10.425 2.61224C10.3232 2.43413 10.151 2.30484 9.9423 2.2497C9.36706 2.09161 8.74749 2.07 8.13506 2.18668C7.52262 2.30337 6.93502 2.55497 6.42105 2.92058L6.16969 3.1069L6.03945 3.20407C5.97894 3.24679 5.92062 3.29237 5.86475 3.34063L5.70295 3.48897C3.56591 5.47799 3.72529 10.2303 6.13929 14.848L6.87953 16.1301C9.668 20.5233 13.7039 23.0375 16.5054 22.2206L16.7148 22.1546C16.7841 22.1305 16.8524 22.103 16.9192 22.0723L17.0691 22.0091L17.3562 21.8845C17.9295 21.622 18.4409 21.2388 18.8478 20.7667C19.2548 20.2946 19.5456 19.7473 19.696 19.1701C19.7526 18.9618 19.7267 18.7481 19.6234 18.5708C19.5602 18.4609 19.4702 18.3683 19.3601 18.2999L18.5754 17.8165Z" stroke="#00445B" stroke-width="1.06794" stroke-miterlimit="10"/>
</g>
<defs>
<clipPath id="clip0">
<rect width="24" height="24" fill="white"/>
</clipPath>
</defs>
</svg>
